<svg xmlns="http://www.w3.org/2000/svg" xmlns:xlink="http://www.w3.org/1999/xlink" xmlns:lucid="lucid" width="1020" height="180"><g transform="translate(-140 -273)" lucid:page-tab-id="0_0"><path d="M0 0h1870.87v1322.83H0z" fill="#fff"/><a xlink:href="https://github.com/jpruliere/projet-imts-hybridagrume.git" target="_blank"><path d="M940 303c0-3.3 2.7-6 6-6h188c3.3 0 6 2.7 6 6v124c0 3.3-2.7 6-6 6H946c-3.3 0-6-2.7-6-6z" fill="#fff"/><path d="M940 303c0-3.3 2.7-6 6-6h188c3.3 0 6 2.7 6 6v124c0 3.3-2.7 6-6 6H946c-3.3 0-6-2.7-6-6zM940 337h200" stroke="#5e5e5e" stroke-width="3" fill="none"/><use xlink:href="#a" transform="matrix(1,0,0,1,950,297) translate(62.225 23.6)"/><use xlink:href="#b" transform="matrix(1,0,0,1,945,339.5) translate(0 17.1)"/><use xlink:href="#c" transform="matrix(1,0,0,1,945,371.5) translate(0 17.1)"/><use xlink:href="#d" transform="matrix(1,0,0,1,945,403.5) translate(0 17.1)"/><path class="lucid-link lucid-hotspot lucid-overlay-hotspot" d="M940 303c0-3.3 2.7-6 6-6h188c3.3 0 6 2.7 6 6v124c0 3.3-2.7 6-6 6H946c-3.3 0-6-2.7-6-6z" fill="none"/><path class="lucid-link lucid-hotspot lucid-overlay-hotspot" d="M940 303c0-3.3 2.7-6 6-6h188c3.3 0 6 2.7 6 6v124c0 3.3-2.7 6-6 6H946c-3.3 0-6-2.7-6-6zM940 337h200" fill="none"/></a><a xlink:href="https://github.com/jpruliere/projet-imts-hybridagrume.git" target="_blank"><path d="M160 299.83c0-3.3 2.7-6 6-6h208c3.3 0 6 2.7 6 6v121c0 3.32-2.7 6-6 6H166c-3.3 0-6-2.68-6-6z" fill="#fff"/><path d="M160 299.83c0-3.3 2.7-6 6-6h208c3.3 0 6 2.7 6 6v121c0 3.32-2.7 6-6 6H166c-3.3 0-6-2.68-6-6zM160 333.83h220" stroke="#5e5e5e" stroke-width="3" fill="none"/><use xlink:href="#e" transform="matrix(1,0,0,1,170,293.8333333333333) translate(70 23.6)"/><use xlink:href="#f" transform="matrix(1,0,0,1,165,336.3333333333333) translate(0 16.46666666666667)"/><use xlink:href="#g" transform="matrix(1,0,0,1,165,367.3333333333333) translate(0 16.46666666666667)"/><use xlink:href="#h" transform="matrix(1,0,0,1,165,398.3333333333333) translate(0 16.46666666666667)"/><path class="lucid-link lucid-hotspot lucid-overlay-hotspot" d="M160 299.83c0-3.3 2.7-6 6-6h208c3.3 0 6 2.7 6 6v121c0 3.32-2.7 6-6 6H166c-3.3 0-6-2.68-6-6z" fill="none"/><path class="lucid-link lucid-hotspot lucid-overlay-hotspot" d="M160 299.83c0-3.3 2.7-6 6-6h208c3.3 0 6 2.7 6 6v121c0 3.32-2.7 6-6 6H166c-3.3 0-6-2.68-6-6zM160 333.83h220" fill="none"/></a><path d="M560 299c0-3.3 2.7-6 6-6h148c3.3 0 6 2.7 6 6v108c0 3.3-2.7 6-6 6H566c-3.3 0-6-2.7-6-6z" stroke="#5e5e5e" stroke-width="3" fill="#fff"/><use xlink:href="#i" transform="matrix(1,0,0,1,565,298) translate(31.79012345679012 59.02777777777778)"/><path d="M382.5 349.33H540" stroke="#5e5e5e" stroke-width="2" fill="none"/><path d="M382.53 350.33h-1.03v-2h1.03z" stroke="#5e5e5e" stroke-width=".05" fill="#5e5e5e"/><path d="M555.26 349.33L541 353.97v-9.27z" stroke="#5e5e5e" stroke-width="2" fill="#5e5e5e"/><path d="M722.5 353H920" stroke="#5e5e5e" stroke-width="2" fill="none"/><path d="M722.53 354h-1.03v-2h1.03z" stroke="#5e5e5e" stroke-width=".05" fill="#5e5e5e"/><path d="M935.26 353L921 357.64v-9.28z" stroke="#5e5e5e" stroke-width="2" fill="#5e5e5e"/><path d="M360 326c0-3.3 2.7-6 6-6h68c3.3 0 6 2.7 6 6v25.67c0 3.3-2.7 6-6 6h-68c-3.3 0-6-2.7-6-6z" stroke="#000" stroke-opacity="0" stroke-width="3" fill="#fff" fill-opacity="0"/><use xlink:href="#j" transform="matrix(1,0,0,1,365,325) translate(17.746913580246915 19.52777777777778)"/><path d="M860 326c0-3.3 2.7-6 6-6h68c3.3 0 6 2.7 6 6v25.67c0 3.3-2.7 6-6 6h-68c-3.3 0-6-2.7-6-6z" stroke="#000" stroke-opacity="0" stroke-width="3" fill="#fff" fill-opacity="0"/><use xlink:href="#k" transform="matrix(1,0,0,1,865,325) translate(19.567901234567902 19.52777777777778)"/><defs><path d="M137 0h-34L2-248h35l83 218 83-218h36" id="l"/><path d="M141-36C126-15 110 5 73 4 37 3 15-17 15-53c-1-64 63-63 125-63 3-35-9-54-41-54-24 1-41 7-42 31l-33-3c5-37 33-52 76-52 45 0 72 20 72 64v82c-1 20 7 32 28 27v20c-31 9-61-2-59-35zM48-53c0 20 12 33 32 33 41-3 63-29 60-74-43 2-92-5-92 41" id="m"/><path d="M114-163C36-179 61-72 57 0H25l-1-190h30c1 12-1 29 2 39 6-27 23-49 58-41v29" id="n"/><path d="M24-231v-30h32v30H24zM24 0v-190h32V0H24" id="o"/><path d="M100-194c63 0 86 42 84 106H49c0 40 14 67 53 68 26 1 43-12 49-29l28 8c-11 28-37 45-77 45C44 4 14-33 15-96c1-61 26-98 85-98zm52 81c6-60-76-77-97-28-3 7-6 17-6 28h103zm-74-98c8-23 27-35 38-54h36v5l-58 49H78" id="p"/><path d="M59-47c-2 24 18 29 38 22v24C64 9 27 4 27-40v-127H5v-23h24l9-43h21v43h35v23H59v120" id="q"/><g id="a"><use transform="matrix(0.05,0,0,0.05,0,0)" xlink:href="#l"/><use transform="matrix(0.05,0,0,0.05,10.65,0)" xlink:href="#m"/><use transform="matrix(0.05,0,0,0.05,20.65,0)" xlink:href="#n"/><use transform="matrix(0.05,0,0,0.05,26.599999999999994,0)" xlink:href="#o"/><use transform="matrix(0.05,0,0,0.05,30.549999999999997,0)" xlink:href="#p"/><use transform="matrix(0.05,0,0,0.05,40.55,0)" xlink:href="#q"/><use transform="matrix(0.05,0,0,0.05,45.55,0)" xlink:href="#p"/></g><path d="M96-169c-40 0-48 33-48 73s9 75 48 75c24 0 41-14 43-38l32 2c-6 37-31 61-74 61-59 0-76-41-82-99-10-93 101-131 147-64 4 7 5 14 7 22l-32 3c-4-21-16-35-41-35" id="r"/><path d="M84 4C-5 8 30-112 23-190h32v120c0 31 7 50 39 49 72-2 45-101 50-169h31l1 190h-30c-1-10 1-25-2-33-11 22-28 36-60 37" id="s"/><path d="M24 0v-261h32V0H24" id="t"/><path d="M108 0H70L1-190h34L89-25l56-165h34" id="u"/><g id="b"><use transform="matrix(0.05,0,0,0.05,0,0)" xlink:href="#r"/><use transform="matrix(0.05,0,0,0.05,9,0)" xlink:href="#s"/><use transform="matrix(0.05,0,0,0.05,19,0)" xlink:href="#t"/><use transform="matrix(0.05,0,0,0.05,22.95,0)" xlink:href="#q"/><use transform="matrix(0.05,0,0,0.05,27.950000000000003,0)" xlink:href="#o"/><use transform="matrix(0.05,0,0,0.05,31.899999999999995,0)" xlink:href="#u"/><use transform="matrix(0.05,0,0,0.05,40.9,0)" xlink:href="#m"/><use transform="matrix(0.05,0,0,0.05,50.9,0)" xlink:href="#n"/></g><path d="M24-231v-30h32v30H24zM-9 49c24 4 33-6 33-30v-209h32V24c2 40-23 58-65 49V49" id="v"/><path d="M100-194c62-1 85 37 85 99 1 63-27 99-86 99S16-35 15-95c0-66 28-99 85-99zM99-20c44 1 53-31 53-75 0-43-8-75-51-75s-53 32-53 75 10 74 51 75" id="w"/><path d="M135-143c-3-34-86-38-87 0 15 53 115 12 119 90S17 21 10-45l28-5c4 36 97 45 98 0-10-56-113-15-118-90-4-57 82-63 122-42 12 7 21 19 24 35" id="x"/><g id="c"><use transform="matrix(0.05,0,0,0.05,0,0)" xlink:href="#v"/><use transform="matrix(0.05,0,0,0.05,3.95,0)" xlink:href="#s"/><use transform="matrix(0.05,0,0,0.05,13.949999999999998,0)" xlink:href="#q"/><use transform="matrix(0.05,0,0,0.05,18.95,0)" xlink:href="#w"/><use transform="matrix(0.05,0,0,0.05,28.950000000000003,0)" xlink:href="#x"/><use transform="matrix(0.05,0,0,0.05,37.95,0)" xlink:href="#o"/><use transform="matrix(0.05,0,0,0.05,41.900000000000006,0)" xlink:href="#q"/><use transform="matrix(0.05,0,0,0.05,46.900000000000006,0)" xlink:href="#p"/></g><path d="M210-169c-67 3-38 105-44 169h-31v-121c0-29-5-50-35-48C34-165 62-65 56 0H25l-1-190h30c1 10-1 24 2 32 10-44 99-50 107 0 11-21 27-35 58-36 85-2 47 119 55 194h-31v-121c0-29-5-49-35-48" id="y"/><path d="M100-194c63 0 86 42 84 106H49c0 40 14 67 53 68 26 1 43-12 49-29l28 8c-11 28-37 45-77 45C44 4 14-33 15-96c1-61 26-98 85-98zm52 81c6-60-76-77-97-28-3 7-6 17-6 28h103" id="z"/><g id="d"><use transform="matrix(0.05,0,0,0.05,0,0)" xlink:href="#m"/><use transform="matrix(0.05,0,0,0.05,10,0)" xlink:href="#y"/><use transform="matrix(0.05,0,0,0.05,24.950000000000003,0)" xlink:href="#z"/><use transform="matrix(0.05,0,0,0.05,34.95,0)" xlink:href="#n"/><use transform="matrix(0.05,0,0,0.05,40.900000000000006,0)" xlink:href="#q"/><use transform="matrix(0.05,0,0,0.05,45.900000000000006,0)" xlink:href="#s"/><use transform="matrix(0.05,0,0,0.05,55.900000000000006,0)" xlink:href="#y"/><use transform="matrix(0.05,0,0,0.05,70.85000000000001,0)" xlink:href="#z"/></g><path d="M30 0v-248h187v28H63v79h144v27H63v87h162V0H30" id="A"/><path d="M115-194c55 1 70 41 70 98S169 2 115 4C84 4 66-9 55-30l1 105H24l-1-265h31l2 30c10-21 28-34 59-34zm-8 174c40 0 45-34 45-75s-6-73-45-74c-42 0-51 32-51 76 0 43 10 73 51 73" id="B"/><path d="M100-194c63 0 86 42 84 106H49c0 40 14 67 53 68 26 1 43-12 49-29l28 8c-11 28-37 45-77 45C44 4 14-33 15-96c1-61 26-98 85-98zm52 81c6-60-76-77-97-28-3 7-6 17-6 28h103zm-36-98l-58-49v-5h36c12 19 30 32 38 54h-16" id="C"/><g id="e"><use transform="matrix(0.05,0,0,0.05,0,0)" xlink:href="#A"/><use transform="matrix(0.05,0,0,0.05,12,0)" xlink:href="#x"/><use transform="matrix(0.05,0,0,0.05,21,0)" xlink:href="#B"/><use transform="matrix(0.05,0,0,0.05,31,0)" xlink:href="#C"/><use transform="matrix(0.05,0,0,0.05,41,0)" xlink:href="#r"/><use transform="matrix(0.05,0,0,0.05,50,0)" xlink:href="#z"/></g><path d="M117-194c89-4 53 116 60 194h-32v-121c0-31-8-49-39-48C34-167 62-67 57 0H25l-1-190h30c1 10-1 24 2 32 11-22 29-35 61-36" id="D"/><path d="M-5 72V49h209v23H-5" id="E"/><path d="M101-234c-31-9-42 10-38 44h38v23H63V0H32v-167H5v-23h27c-7-52 17-82 69-68v24" id="F"/><path d="M145-31C134-9 116 4 85 4 32 4 16-35 15-94c0-59 17-99 70-100 32-1 48 14 60 33 0-11-1-24 2-32h30l-1 268h-32zM93-21c41 0 51-33 51-76s-8-73-50-73c-40 0-46 35-46 75s5 74 45 74" id="G"/><g id="f"><use transform="matrix(0.048148148148148155,0,0,0.048148148148148155,0,0)" xlink:href="#D"/><use transform="matrix(0.048148148148148155,0,0,0.048148148148148155,9.629629629629632,0)" xlink:href="#w"/><use transform="matrix(0.048148148148148155,0,0,0.048148148148148155,19.259259259259263,0)" xlink:href="#y"/><use transform="matrix(0.048148148148148155,0,0,0.048148148148148155,33.655555555555566,0)" xlink:href="#E"/><use transform="matrix(0.048148148148148155,0,0,0.048148148148148155,43.2851851851852,0)" xlink:href="#x"/><use transform="matrix(0.048148148148148155,0,0,0.048148148148148155,51.95185185185187,0)" xlink:href="#r"/><use transform="matrix(0.048148148148148155,0,0,0.048148148148148155,60.61851851851854,0)" xlink:href="#o"/><use transform="matrix(0.048148148148148155,0,0,0.048148148148148155,64.42222222222225,0)" xlink:href="#z"/><use transform="matrix(0.048148148148148155,0,0,0.048148148148148155,74.05185185185188,0)" xlink:href="#D"/><use transform="matrix(0.048148148148148155,0,0,0.048148148148148155,83.68148148148151,0)" xlink:href="#q"/><use transform="matrix(0.048148148148148155,0,0,0.048148148148148155,88.49629629629632,0)" xlink:href="#o"/><use transform="matrix(0.048148148148148155,0,0,0.048148148148148155,92.30000000000003,0)" xlink:href="#F"/><use transform="matrix(0.048148148148148155,0,0,0.048148148148148155,97.11481481481484,0)" xlink:href="#o"/><use transform="matrix(0.048148148148148155,0,0,0.048148148148148155,100.91851851851854,0)" xlink:href="#G"/><use transform="matrix(0.048148148148148155,0,0,0.048148148148148155,110.54814814814816,0)" xlink:href="#s"/><use transform="matrix(0.048148148148148155,0,0,0.048148148148148155,120.17777777777779,0)" xlink:href="#z"/></g><g id="g"><use transform="matrix(0.048148148148148155,0,0,0.048148148148148155,0,0)" xlink:href="#D"/><use transform="matrix(0.048148148148148155,0,0,0.048148148148148155,9.629629629629632,0)" xlink:href="#w"/><use transform="matrix(0.048148148148148155,0,0,0.048148148148148155,19.259259259259263,0)" xlink:href="#y"/><use transform="matrix(0.048148148148148155,0,0,0.048148148148148155,33.655555555555566,0)" xlink:href="#E"/><use transform="matrix(0.048148148148148155,0,0,0.048148148148148155,43.2851851851852,0)" xlink:href="#r"/><use transform="matrix(0.048148148148148155,0,0,0.048148148148148155,51.95185185185187,0)" xlink:href="#w"/><use transform="matrix(0.048148148148148155,0,0,0.048148148148148155,61.581481481481504,0)" xlink:href="#y"/><use transform="matrix(0.048148148148148155,0,0,0.048148148148148155,75.9777777777778,0)" xlink:href="#y"/><use transform="matrix(0.048148148148148155,0,0,0.048148148148148155,90.3740740740741,0)" xlink:href="#s"/><use transform="matrix(0.048148148148148155,0,0,0.048148148148148155,100.00370370370374,0)" xlink:href="#D"/></g><g id="h"><use transform="matrix(0.048148148148148155,0,0,0.048148148148148155,0,0)" xlink:href="#F"/><use transform="matrix(0.048148148148148155,0,0,0.048148148148148155,4.814814814814816,0)" xlink:href="#m"/><use transform="matrix(0.048148148148148155,0,0,0.048148148148148155,14.444444444444446,0)" xlink:href="#y"/><use transform="matrix(0.048148148148148155,0,0,0.048148148148148155,28.840740740740745,0)" xlink:href="#o"/><use transform="matrix(0.048148148148148155,0,0,0.048148148148148155,32.64444444444445,0)" xlink:href="#t"/><use transform="matrix(0.048148148148148155,0,0,0.048148148148148155,36.44814814814816,0)" xlink:href="#t"/><use transform="matrix(0.048148148148148155,0,0,0.048148148148148155,40.25185185185186,0)" xlink:href="#z"/></g><path fill="#333" d="M30-248c87 1 191-15 191 75 0 78-77 80-158 76V0H30v-248zm33 125c57 0 124 11 124-50 0-59-68-47-124-48v98" id="H"/><path fill="#333" d="M100-194c62-1 85 37 85 99 1 63-27 99-86 99S16-35 15-95c0-66 28-99 85-99zM99-20c44 1 53-31 53-75 0-43-8-75-51-75s-53 32-53 75 10 74 51 75" id="I"/><path fill="#333" d="M135-143c-3-34-86-38-87 0 15 53 115 12 119 90S17 21 10-45l28-5c4 36 97 45 98 0-10-56-113-15-118-90-4-57 82-63 122-42 12 7 21 19 24 35" id="J"/><path fill="#333" d="M100-194c63 0 86 42 84 106H49c0 40 14 67 53 68 26 1 43-12 49-29l28 8c-11 28-37 45-77 45C44 4 14-33 15-96c1-61 26-98 85-98zm52 81c6-60-76-77-97-28-3 7-6 17-6 28h103zm-36-98l-58-49v-5h36c12 19 30 32 38 54h-16" id="K"/><path fill="#333" d="M85-194c31 0 48 13 60 33l-1-100h32l1 261h-30c-2-10 0-23-3-31C134-8 116 4 85 4 32 4 16-35 15-94c0-66 23-100 70-100zm9 24c-40 0-46 34-46 75 0 40 6 74 45 74 42 0 51-32 51-76 0-42-9-74-50-73" id="L"/><path fill="#333" d="M100-194c63 0 86 42 84 106H49c0 40 14 67 53 68 26 1 43-12 49-29l28 8c-11 28-37 45-77 45C44 4 14-33 15-96c1-61 26-98 85-98zm52 81c6-60-76-77-97-28-3 7-6 17-6 28h103" id="M"/><g id="i"><use transform="matrix(0.06172839506172839,0,0,0.06172839506172839,0,0)" xlink:href="#H"/><use transform="matrix(0.06172839506172839,0,0,0.06172839506172839,14.814814814814813,0)" xlink:href="#I"/><use transform="matrix(0.06172839506172839,0,0,0.06172839506172839,27.160493827160494,0)" xlink:href="#J"/><use transform="matrix(0.06172839506172839,0,0,0.06172839506172839,38.27160493827161,0)" xlink:href="#J"/><use transform="matrix(0.06172839506172839,0,0,0.06172839506172839,49.38271604938272,0)" xlink:href="#K"/><use transform="matrix(0.06172839506172839,0,0,0.06172839506172839,61.7283950617284,0)" xlink:href="#L"/><use transform="matrix(0.06172839506172839,0,0,0.06172839506172839,74.07407407407408,0)" xlink:href="#M"/></g><path fill="#333" d="M27 0v-27h64v-190l-56 39v-29l58-41h29v221h61V0H27" id="N"/><path fill="#333" d="M68-38c1 34 0 65-14 84H32c9-13 17-26 17-46H33v-38h35" id="O"/><path fill="#333" d="M190 0L58-211 59 0H30v-248h39L202-35l-2-213h31V0h-41" id="P"/><g id="j"><use transform="matrix(0.06172839506172839,0,0,0.06172839506172839,0,0)" xlink:href="#N"/><use transform="matrix(0.06172839506172839,0,0,0.06172839506172839,12.345679012345679,0)" xlink:href="#O"/><use transform="matrix(0.06172839506172839,0,0,0.06172839506172839,18.51851851851852,0)" xlink:href="#P"/></g><g id="k"><use transform="matrix(0.06172839506172839,0,0,0.06172839506172839,0,0)" xlink:href="#N"/><use transform="matrix(0.06172839506172839,0,0,0.06172839506172839,12.345679012345679,0)" xlink:href="#O"/><use transform="matrix(0.06172839506172839,0,0,0.06172839506172839,18.51851851851852,0)" xlink:href="#N"/></g></defs></g></svg>